<?xml version="1.0" encoding="UTF-8" standalone="no"?>
<!-- Created with Inkscape (http://www.inkscape.org/) -->

<svg
   xmlns:dc="http://purl.org/dc/elements/1.1/"
   xmlns:cc="http://creativecommons.org/ns#"
   xmlns:rdf="http://www.w3.org/1999/02/22-rdf-syntax-ns#"
   xmlns:svg="http://www.w3.org/2000/svg"
   xmlns="http://www.w3.org/2000/svg"
   xmlns:sodipodi="http://sodipodi.sourceforge.net/DTD/sodipodi-0.dtd"
   xmlns:inkscape="http://www.inkscape.org/namespaces/inkscape"
   width="255.59146mm"
   height="44.450001mm"
   viewBox="0 0 905.63901 157.5"
   id="svg2"
   version="1.1"
   inkscape:version="0.92.1 r15371"
   sodipodi:docname="logo-new (1).svg"
   inkscape:export-filename="C:\Users\User\Desktop\g4235.png"
   inkscape:export-xdpi="300"
   inkscape:export-ydpi="300">
  <defs
     id="defs4" />
  <sodipodi:namedview
     id="base"
     pagecolor="#ffffff"
     bordercolor="#666666"
     borderopacity="1.0"
     inkscape:pageopacity="0.0"
     inkscape:pageshadow="2"
     inkscape:zoom="2.6630508"
     inkscape:cx="454.81658"
     inkscape:cy="75.820557"
     inkscape:document-units="px"
     inkscape:current-layer="layer1"
     showgrid="false"
     showborder="true"
     inkscape:snap-text-baseline="true"
     inkscape:window-width="3840"
     inkscape:window-height="2035"
     inkscape:window-x="-13"
     inkscape:window-y="-13"
     inkscape:window-maximized="1"
     fit-margin-top="0"
     fit-margin-left="0"
     fit-margin-right="0"
     fit-margin-bottom="0" />
  <metadata
     id="metadata7">
    <rdf:RDF>
      <cc:Work
         rdf:about="">
        <dc:format>image/svg+xml</dc:format>
        <dc:type
           rdf:resource="http://purl.org/dc/dcmitype/StillImage" />
        <dc:title />
      </cc:Work>
    </rdf:RDF>
  </metadata>
  <g
     inkscape:groupmode="layer"
     id="layer2"
     inkscape:label="Layer 2"
     transform="translate(-78.676531,-48.55988)" />
  <g
     inkscape:label="Layer 1"
     inkscape:groupmode="layer"
     id="layer1"
     transform="translate(-78.676531,-463.12681)">
    <g
       style="font-style:normal;font-variant:normal;font-weight:normal;font-stretch:normal;font-size:180px;line-height:125%;font-family:'Alex Brush';-inkscape-font-specification:'Alex Brush, Normal';text-align:start;letter-spacing:0px;word-spacing:0px;writing-mode:lr-tb;text-anchor:start;fill:#b71958;fill-opacity:1;stroke:none;stroke-width:1px;stroke-linecap:butt;stroke-linejoin:miter;stroke-opacity:1"
       id="text4136">
      <path
         d="m 214.03653,549.70681 q 0,6.48 -2.88,12.24 -6.12,12.96 -23.4,21.6 -17.28,8.64 -36,8.64 -28.44,0 -38.7,-19.44 -18.539999,15.48 -26.459999,15.48 -1.44,0 -2.52,-0.54 -5.4,-2.88 -5.4,-12.42 0,-9.54 7.92,-23.4 7.92,-13.86 13.859999,-16.38 2.7,-0.9 4.14,-0.9 5.22,0 7.92,8.64 l 5.4,17.28 q 5.22,-5.58 14.22,-17.82 l 16.02,-21.6 q 29.52,-38.34 38.7,-41.94 3.24,-1.26 6.66,-1.26 3.42,0 5.58,1.44 2.34,1.44 2.34,3.6 0,3.24 -5.22,3.78 -5.4,3.06 -20.7,18 -15.12,14.76 -18,18.72 -20.16,28.08 -37.26,43.2 10.98,21.78 32.94,21.78 13.32,0 26.46,-8.28 13.14,-8.46 19.62,-20.7 2.88,-5.22 2.88,-11.7 0,-6.48 -5.22,-12.24 -5.04,-5.94 -12.78,-8.64 -3.6,-0.54 -11.52,-1.44 -7.92,-1.08 -7.92,-3.42 0,-0.9 0.72,-1.62 2.16,-2.52 5.58,-2.52 1.98,0 3.78,0.72 1.98,0.72 3.06,1.08 1.08,0.36 2.52,0.9 3.96,0.36 6.84,0.36 11.88,0 21.6,-3.78 12.42,-4.86 15.84,-14.58 2.16,-6.3 2.16,-11.34 0,-12.42 -12.06,-18.54 -10.44,-5.4 -28.62,-5.4 -28.62,0 -51.3,10.8 -11.52,5.4 -21.96,16.02 -10.26,10.62 -10.26,18.18 0,5.22 2.7,8.64 1.08,1.44 3.78,3.6 0.9,0.54 -1.08,0.54 -11.159999,-2.52 -11.159999,-14.94 0,-12.42 12.599999,-23.4 9.36,-8.1 21.06,-13.14 24.3,-10.44 55.26,-10.44 22.14,0 35.28,6.48 15.3,7.2 15.3,21.78 0,5.76 -2.34,11.7 -3.78,10.8 -19.62,16.38 -11.88,4.14 -25.56,4.32 10.62,0.54 17.82,7.92 7.38,7.2 7.38,18 z m -115.019999,-6.66 q -0.18,0 -0.9,0.36 -13.32,19.26 -13.32,30.96 0,4.86 2.34,8.82 0.54,0.9 1.8,0.9 5.76,0 22.139999,-16.38 l -0.54,-0.72 q -7.2,-23.94 -11.519999,-23.94 z"
         id="path4255"
         inkscape:connector-curvature="0"
         style="fill:#b71958;fill-opacity:1" />
      <path
         d="m 259.46122,584.62681 q -13.5,0 -13.5,-14.94 0,-7.56 3.96,-16.56 3.96,-9 8.64,-15.12 -0.9,0.18 -2.34,0.18 -4.32,0 -7.2,-6.12 l -13.32,17.28 q -11.16,13.86 -12.96,13.86 -0.9,0 -0.9,-0.72 0,-1.8 3.06,-5.22 15.66,-18.18 22.14,-30.78 4.14,-15.66 10.44,-15.66 4.14,0 4.14,3.6 0,3.6 -4.5,9.18 l -4.32,5.76 q 0,3.78 5.58,3.78 3.24,0 7.2,-2.34 l 4.68,-2.88 q 0.36,-0.18 1.8,-0.18 1.44,0 3.06,1.8 1.62,1.8 1.08,3.24 l -12.42,15.66 q -11.52,14.76 -11.52,23.4 0,8.46 7.92,8.46 8.28,0 20.34,-8.82 7.2,-5.22 13.14,-11.7 5.58,-6.48 6.12,-6.48 1.26,0 1.26,1.44 0,1.26 -1.62,3.06 l -5.76,6.48 q -4.86,5.04 -10.8,9.72 -14.22,10.62 -23.4,10.62 z"
         id="path4257"
         inkscape:connector-curvature="0"
         style="fill:#b71958;fill-opacity:1" />
      <path
         d="m 300.23684,585.70681 c -6.12,0 -9.18,-3.96 -9.18,-11.88 0,-6.48 3.54,-15.42 10.62,-26.82 7.08,-11.52 12.78,-17.34 17.1,-17.46 1.2,0 2.52,0.48 3.96,1.44 1.56,0.96 2.34,1.92 2.34,2.88 -0.6,0.84 -1.32,1.8 -2.16,2.88 -0.84,0.96 -1.74,2.04 -2.7,3.24 -0.96,1.2 -2.28,2.94 -3.96,5.22 -1.68,2.16 -3.3,4.26 -4.86,6.3 -9,11.64 -13.5,19.68 -13.5,24.12 0,4.32 1.5,6.48 4.5,6.48 2.52,0 5.94,-1.38 10.26,-4.14 10.08,-6.24 18.06,-13.08 23.94,-20.52 2.16,-2.76 3.6,-4.14 4.32,-4.14 0.84,0 1.26,0.48 1.26,1.44 0,0.96 -1.38,2.88 -4.14,5.76 -2.76,2.88 -4.98,5.16 -6.66,6.84 -1.56,1.68 -2.64,2.82 -3.24,3.42 -0.6,0.48 -1.74,1.5 -3.42,3.06 -1.56,1.44 -2.76,2.46 -3.6,3.06 -0.84,0.6 -2.04,1.5 -3.6,2.7 -1.56,1.2 -2.94,2.1 -4.14,2.7 -1.2,0.48 -2.58,1.08 -4.14,1.8 -2.52,1.08 -5.52,1.62 -9,1.62 z"
         id="path4259"
         inkscape:connector-curvature="0"
         sodipodi:nodetypes="sscccccsccssccssscccssccs"
         style="fill:#b71958;fill-opacity:1" />
      <path
         d="m 394.65809,528.82681 2.52,-0.54 q 2.34,0 3.6,1.44 1.44,1.44 1.44,2.34 0,0.72 -0.18,1.8 -0.18,0.9 -5.22,9 -6.3,10.98 -10.44,18.54 -14.58,27.18 -22.32,37.26 -16.56,21.96 -31.5,21.96 -5.22,0 -9,-4.5 -3.96,-4.32 -4.14,-9.72 0.54,-2.16 1.62,-2.16 0.54,0 0.9,1.26 0.9,4.68 3.42,7.2 2.52,2.52 5.04,2.52 10.26,0 21.96,-13.5 7.74,-9 17.1,-26.28 l 9,-17.82 -13.5,13.68 q -12.96,12.42 -17.82,12.42 -4.68,0 -9,-3.24 -4.86,-3.6 -4.86,-9.54 0,-13.14 18.36,-31.32 18.54,-18.18 33.66,-18.18 6.12,0 7.92,3.96 0.54,1.44 0.9,2.52 0.36,0.9 0.54,0.9 z m -53.82,44.28 q 0,6.48 4.5,6.48 10.44,0 28.44,-22.86 l 19.08,-26.28 q -1.08,-2.52 -4.5,-2.52 -11.16,0 -29.34,17.28 -18.18,17.1 -18.18,27.9 z"
         id="path4261"
         inkscape:connector-curvature="0"
         style="fill:#b71958;fill-opacity:1" />
      <path
         d="m 443.64341,583.00681 q -10.62,0 -10.62,-12.42 0,-7.02 4.86,-15.48 5.04,-8.64 12.24,-20.16 -23.04,11.52 -41.76,34.02 -10.44,15.66 -12.24,15.66 -5.22,0 -5.22,-3.06 0,-1.62 2.16,-5.76 17.46,-31.14 26.46,-45.54 21.42,-34.38 30.24,-37.26 0.36,-0.18 0.72,-0.18 2.34,0 3.24,3.78 -0.54,3.78 -18.72,27.36 -18.9,23.94 -21.42,31.32 6.66,-4.86 23.22,-16.38 17.82,-12.42 23.58,-12.42 5.76,0 5.76,4.5 0,0.72 -0.18,1.08 0,0.18 -12.42,16.92 -12.42,16.74 -12.42,24.66 0,4.14 3.06,4.14 9.72,-0.36 29.16,-23.4 1.62,-1.62 2.34,-1.62 0.9,0 0.9,1.08 0,3.6 -17.82,19.44 -11.16,9.72 -15.12,9.72 z"
         id="path4263"
         inkscape:connector-curvature="0"
         style="fill:#b71958;fill-opacity:1" />
      <path
         d="m 515.81497,525.76681 25.92,-0.36 q 0.54,0.36 0.54,0.54 0,1.62 -22.5,4.5 -22.32,2.88 -24.12,3.42 -3.42,3.06 -12.6,18.36 -9.18,15.12 -9.18,22.14 0,6.66 9.18,6.66 4.32,0 11.34,-2.7 7.02,-2.7 10.8,-5.04 10.08,-6.3 21.6,-18.54 2.52,-2.52 3.42,-2.52 0.54,0 0.54,1.08 0,1.08 -2.7,4.32 -9.36,11.52 -21.06,18.54 -14.04,8.64 -26.82,8.64 -5.58,0 -9.18,-2.34 -3.42,-2.52 -3.42,-9.9 0,-7.38 6.48,-20.16 6.48,-12.96 9.9,-19.26 -2.52,0.54 -4.32,0.54 -5.22,0 -5.22,-4.14 0,-3.06 4.32,-4.32 0.54,0 1.62,-0.18 l 10.44,0 q 3.24,-4.14 7.38,-9.54 5.04,-6.48 6.84,-6.48 1.8,0 4.5,1.44 2.7,1.44 2.7,3.42 0,1.98 -8.64,11.7 4.68,0.18 12.24,0.18 z"
         id="path4265"
         inkscape:connector-curvature="0"
         style="fill:#b71958;fill-opacity:1" />
      <path
         d="m 700.16028,506.68681 q -6.66,2.7 -11.52,2.7 -4.68,0 -4.68,-1.98 0,-1.26 5.22,-1.44 5.4,-0.18 7.74,-1.26 6.84,-3.6 6.84,-10.62 0,-3.6 -1.98,-7.56 -5.76,-10.26 -27.9,-10.26 -12.78,0 -25.56,3.96 -12.78,3.78 -21.42,11.88 -8.64,7.92 -8.64,14.76 0,10.44 20.7,15.3 l 21.24,3.96 q 12.78,2.34 19.08,6.48 8.28,5.04 8.28,14.4 0,3.78 -1.26,8.1 -5.76,19.44 -29.7,29.7 -19.98,8.82 -47.16,8.82 -7.74,0 -13.5,-0.72 5.76,3.24 15.12,5.58 0.72,0.18 0.72,0.72 0,1.62 -3.78,1.62 -7.38,0 -18.36,-8.82 -14.94,-2.34 -22.32,-8.28 -4.68,-3.78 -8.64,-11.16 -3.96,-7.38 -3.96,-13.32 0,-5.94 2.34,-9.9 5.4,-9.54 13.68,-9.54 6.3,0 7.38,10.62 2.52,20.52 3.42,23.4 2.7,8.82 9.18,14.94 7.56,1.62 16.38,1.62 19.44,0 38.16,-7.74 18.72,-7.74 27,-21.96 3.42,-5.58 3.42,-9.9 0,-8.46 -14.94,-13.14 l -31.68,-7.2 q -9.72,-2.34 -15.66,-7.74 -5.76,-5.4 -5.76,-12.42 0,-10.8 13.5,-21.6 10.26,-8.28 25.02,-12.78 14.94,-4.68 29.16,-4.68 14.4,0 23.76,4.14 12.06,5.58 12.06,16.38 0,10.62 -10.98,14.94 z m -115.92,80.28 q -10.44,-11.52 -13.32,-31.5 -1.62,-11.34 -3.06,-11.34 -1.44,0 -2.7,0.9 -1.26,0.72 -2.52,3.42 -1.26,2.7 -1.26,7.02 0,13.86 9.72,23.76 4.86,5.04 13.14,7.74 z"
         id="path4267"
         inkscape:connector-curvature="0"
         style="fill:#b71958;fill-opacity:1" />
      <path
         d="m 760.28872,543.04681 q 0,14.58 -16.74,27.72 -16.56,12.96 -28.8,12.96 -8.1,0 -11.88,-1.08 -3.6,-1.08 -8.1,-6.48 -3.06,2.52 -8.28,12.78 -5.22,10.44 -5.22,17.82 0,3.42 3.42,9 0.36,0.9 -0.54,1.44 -0.9,0.72 -1.26,0.72 -0.54,0 -0.9,-0.18 -7.56,-4.14 -7.56,-16.2 0,-11.88 19.8,-41.22 19.98,-29.52 27.54,-32.04 1.8,-0.36 2.34,-0.36 3.06,0 3.06,6.66 1.8,-1.8 7.38,-3.42 6.84,-1.8 9.72,-1.8 6.48,0 11.16,3.78 4.86,3.6 4.86,9.9 z m -9.18,-1.8 q 0,-6.84 -8.1,-6.84 -8.1,0 -14.76,3.42 -3.06,1.44 -16.92,15.84 -13.86,14.4 -13.86,18.54 0,3.24 4.86,4.86 5.04,1.62 10.08,1.62 9.9,0 24.3,-11.16 14.4,-11.34 14.4,-26.28 z"
         id="path4269"
         inkscape:connector-curvature="0"
         style="fill:#b71958;fill-opacity:1" />
      <path
         d="m 820.22028,529.90681 2.52,-0.54 q 1.98,0 3.78,1.62 1.8,1.62 1.8,2.52 0,0.9 -11.16,17.46 -11.16,16.38 -11.16,22.86 0,0.54 0.18,1.08 0.9,4.14 3.96,4.14 9.36,0 34.2,-30.96 0.54,-0.72 1.26,-0.72 0.72,0 0.72,1.44 0,1.26 -1.62,3.42 -23.04,30.78 -35.1,30.78 -1.62,0 -3.06,-0.54 -7.92,-3.06 -7.92,-11.88 0,-3.06 0.72,-6.12 l -11.16,10.8 q -10.62,9.36 -15.48,9.36 -4.68,0 -9,-3.06 -4.86,-3.6 -4.86,-9.54 0,-13.14 18.36,-31.32 18.36,-18.36 33.66,-18.36 5.94,0 7.92,4.14 0.54,1.44 0.9,2.52 0.36,0.9 0.54,0.9 z m -53.82,44.28 q 0,6.48 4.5,6.48 10.44,0 28.44,-22.86 l 19.08,-26.28 q -1.44,-2.52 -4.68,-2.52 -10.98,0 -29.16,17.1 -18.18,16.92 -18.18,28.08 z"
         id="path4271"
         inkscape:connector-curvature="0"
         style="fill:#b71958;fill-opacity:1" />
      <path
         d="m 871.17997,584.62681 q -13.5,0 -13.5,-14.94 0,-7.56 3.96,-16.56 3.96,-9 8.64,-15.12 -0.9,0.18 -2.34,0.18 -4.32,0 -7.2,-6.12 l -13.32,17.28 q -11.16,13.86 -12.96,13.86 -0.9,0 -0.9,-0.72 0,-1.8 3.06,-5.22 15.66,-18.18 22.14,-30.78 4.14,-15.66 10.44,-15.66 4.14,0 4.14,3.6 0,3.6 -4.5,9.18 l -4.32,5.76 q 0,3.78 5.58,3.78 3.24,0 7.2,-2.34 l 4.68,-2.88 q 0.36,-0.18 1.8,-0.18 1.44,0 3.06,1.8 1.62,1.8 1.08,3.24 l -12.42,15.66 q -11.52,14.76 -11.52,23.4 0,8.46 7.92,8.46 8.28,0 20.34,-8.82 7.2,-5.22 13.14,-11.7 5.58,-6.48 6.12,-6.48 1.26,0 1.26,1.44 0,1.26 -1.62,3.06 l -5.76,6.48 q -4.86,5.04 -10.8,9.72 -14.22,10.62 -23.4,10.62 z"
         id="path4273"
         inkscape:connector-curvature="0"
         style="fill:#b71958;fill-opacity:1" />
      <path
         d="m 942.37559,585.88681 q -14.22,0 -24.12,-22.5 -2.52,3.78 -11.34,21.24 -6.48,-2.52 -6.48,-6.84 0,-7.74 23.22,-42.48 23.22,-34.74 31.86,-40.86 0.72,-0.54 2.88,-0.54 5.58,0 5.58,2.88 0,1.44 -12.6,16.2 -12.42,14.76 -13.86,17.82 16.38,-8.46 26.1,-8.46 5.58,0 9.54,4.5 3.78,3.78 3.78,7.74 0,0.54 0,1.08 -1.44,10.26 -14.4,16.92 -10.44,5.58 -19.44,5.58 -9,0 -12.6,-2.34 -1.08,-0.18 -1.8,0.54 -0.54,0.72 -0.18,1.8 5.04,22.32 16.74,22.32 6.12,0 15.66,-6.84 9.72,-6.84 20.16,-19.26 1.26,-1.26 2.16,-1.26 1.08,0 1.08,1.08 0,0.9 -1.26,2.7 -9.72,11.88 -18.36,18.72 -13.14,10.26 -22.32,10.26 z m 25.92,-55.08 q 0,-1.44 -1.62,-2.88 -1.62,-1.44 -3.42,-1.44 -9.72,0 -23.4,8.1 -13.5,8.1 -16.56,18.36 1.62,0 8.64,0.54 8.1,0 21.24,-6.66 15.12,-7.56 15.12,-16.02 z"
         id="path4275"
         inkscape:connector-curvature="0"
         style="fill:#b71958;fill-opacity:1" />
    </g>
    <g
       id="g4233"
       transform="matrix(0.20761459,0.1348265,-0.14091584,0.21699138,329.71404,450.00985)">
      <g
         id="g4193">
        <path
           id="path4195"
           d="m 245.185,44.209 -190.94,0 L 0,116.533 149.715,255.221 299.43,116.539 245.185,44.209 Z m -38.439,77.569 -57.007,112.1 -56.53,-112.1 113.537,0 z m -108.263,-11.934 51.232,-51.232 51.232,51.232 -102.464,0 z m 65.636,-53.702 69.323,0 -19.566,49.758 -49.757,-49.758 z m -77.808,49 -16.331,-49 65.331,0 -49,49 z m -6.462,16.636 49.632,98.429 -106.258,-98.429 56.626,0 z m 140.287,0 56.071,0 -106.013,98.203 49.942,-98.203 z m 5.012,-11.934 18.694,-47.538 35.652,47.538 -54.346,0 z M 58.266,58.738 l 17.035,51.112 -55.372,0 38.337,-51.112 z"
           style="fill:#464646;fill-opacity:1"
           inkscape:connector-curvature="0" />
      </g>
      <g
         id="g4197" />
      <g
         id="g4199" />
      <g
         id="g4201" />
      <g
         id="g4203" />
      <g
         id="g4205" />
      <g
         id="g4207" />
      <g
         id="g4209" />
      <g
         id="g4211" />
      <g
         id="g4213" />
      <g
         id="g4215" />
      <g
         id="g4217" />
      <g
         id="g4219" />
      <g
         id="g4221" />
      <g
         id="g4223" />
      <g
         id="g4225" />
    </g>
  </g>
</svg>
